<svg height="512" viewBox="0 0 60 60" width="512" xmlns="http://www.w3.org/2000/svg"><g id="Page-1" fill="none" fill-rule="evenodd"><g id="048---Link" fill="rgb(0,0,0)" fill-rule="nonzero"><path id="Shape" d="m7.1709 57.0713c3.9077151 3.8997082 10.2348849 3.8997082 14.1426 0l18.2578-18.2578 17.5-17.5c3.899378-3.9078517 3.899378-10.2347483 0-14.1426l-4.2422-4.2422c-3.9082611-3.8983879-10.2343389-3.8983879-14.1426 0l-17.5 17.5-18.2578 18.2578c-3.89937803 3.9078517-3.89937803 10.2347483 0 14.1426zm33.6654-30.8364c-.3674366-.5626485-.7912961-1.0863579-1.265-1.563l-4.2432-4.2432c-.4766002-.4736402-1.0002401-.8974641-1.5628-1.2649l9.8714-9.8708c1.1863872-1.13481969 3.0558128-1.13481969 4.2422 0l2.8281 2.8281c.5633332.5621351.8799115 1.3252733.8799115 2.1211s-.3165783 1.5589649-.8799115 2.1211zm-.7357-21.8921c3.1265548-3.11914312 8.1878452-3.11914312 11.3144 0l4.2422 4.2422c3.1191431 3.1265548 3.1191431 8.1878452 0 11.3144l-13.2672 13.2672c.2497445-1.7126269.0477063-3.4607867-.5861-5.0713l10.3171-10.318c.9383607-.9371046 1.465632-2.2088454 1.465632-3.535s-.5272713-2.5978954-1.465632-3.535l-2.828-2.8284c-.9371046-.93836075-2.2088454-1.46563205-3.535-1.46563205s-2.5978954.5272713-3.535 1.46563205l-16.0873 16.0859c-.2747955.2730376-.5141727.5795412-.7125.9123l-.0015.0021c-.0161.0272-.0383.0535-.0535.0808-1.1648881 1.9620247-.848739 4.4645243.7675 6.0752l2.8291 2.8291c.769685.7638743 1.7679211 1.2552844 2.8427 1.3994l-3.3482 3.3481c-.5887525-.3329003-1.1320744-.7404001-1.6165-1.2124l-4.2412-4.2422c-.6451052-.6418398-1.1732303-1.3913537-1.5606-2.2148-1.461146-3.0573993-.836043-6.7038331 1.56-9.1zm-6.3193 28.6854c-1.1417023.5501049-2.5064078.3182687-3.4024-.578l-2.8289-2.8291c-.8961319-.8978089-1.126395-2.2641836-.574-3.4061 1.1419519-.5499704 2.5067668-.3181632 3.4031.578l2.8281 2.8281c.8960551.8982516 1.126322 2.2648121.5741 3.4071zm-13.86-.02c.3679288.5625819.7919288 1.0864253 1.2655 1.5635l4.2422 4.2432c.477118.4731068 1.000848.8967612 1.5632 1.2645l-10.6289 10.6276c-1.1863872 1.1348197-3.0558128 1.1348197-4.2422 0l-2.8281-2.8281c-.56333323-.5621351-.87991146-1.3252733-.87991146-2.1211s.31657823-1.5589649.87991146-2.1211zm-15.5785 7.0924 14.0244-14.0245c-.2498955 1.7127645-.0481025 3.4610975.5854 5.0719l-11.0737 11.0747c-.93836075.9371046-1.46563205 2.2088454-1.46563205 3.535s.5272713 2.5978954 1.46563205 3.535l2.8281 2.8281c.9371046.9383607 2.2088454 1.465632 3.535 1.465632s2.5978954-.5272713 3.535-1.465632l16.8441-16.8425c.2750694-.2729073.5145649-.579467.7128-.9124l.0011-.0016c.0161-.0273.0384-.0538.0537-.0811 1.1649097-1.9623786.8487343-4.4651731-.7676-6.0762l-2.8281-2.8281c-.7660198-.7651383-1.7601961-1.2602608-2.8324-1.4106l3.3375-3.3374c.5888088.3323827 1.1320087.739749 1.616 1.2119l4.2431 4.2431c.6448547.6416476 1.1723561 1.3912709 1.5586 2.2149 1.4613935 3.0566657.8368387 6.7026138-1.5586 9.0986l-18.2578 18.2578c-3.1265548 3.1191431-8.1878452 3.1191431-11.3144 0l-4.2422-4.2422c-3.11914312-3.1265548-3.11914312-8.1878452 0-11.3144z"/></g></g></svg>